<svg width="17" height="16" viewBox="0 0 17 16" fill="none" xmlns="http://www.w3.org/2000/svg">
<g filter="url(#filter0_d_114_198)">
<mask id="mask0_114_198" style="mask-type:luminance" maskUnits="userSpaceOnUse" x="0" y="0" width="17" height="16">
<path d="M16.1441 0H0V16H16.1441V0Z" fill="white"/>
</mask>
<g mask="url(#mask0_114_198)">
<path d="M6.19198 5.82397V4.30397C6.19198 4.17595 6.24003 4.07991 6.35197 4.01599L9.40807 2.25599C9.82406 2.016 10.3201 1.90406 10.832 1.90406C12.752 1.90406 13.9681 3.39209 13.9681 4.97602C13.9681 5.088 13.9681 5.21601 13.952 5.34403L10.784 3.48799C10.592 3.37605 10.3999 3.37605 10.208 3.48799L6.19198 5.82397ZM13.328 11.744V8.11194C13.328 7.88789 13.2319 7.7279 13.04 7.61592L9.02399 5.27993L10.336 4.52788C10.448 4.46396 10.544 4.46396 10.656 4.52788L13.712 6.28788C14.5921 6.79995 15.184 7.88789 15.184 8.94382C15.184 10.1598 14.4641 11.2798 13.328 11.7439V11.744ZM5.24799 8.54404L3.93599 7.77608C3.82405 7.71216 3.776 7.61609 3.776 7.48807V3.9681C3.776 2.25616 5.088 0.960064 6.86404 0.960064C7.53612 0.960064 8.15999 1.18412 8.68813 1.5841L5.53613 3.40816C5.34419 3.5201 5.24816 3.6801 5.24816 3.90418V8.54417L5.24799 8.54404ZM8.07203 10.176L6.19198 9.12002V6.88011L8.07203 5.82414L9.95194 6.88011V9.12002L8.07203 10.176ZM9.28002 15.0401C8.60796 15.0401 7.98409 14.816 7.45596 14.4161L10.6079 12.592C10.7999 12.48 10.8959 12.32 10.8959 12.096V7.45596L12.224 8.22392C12.3359 8.28784 12.384 8.38388 12.384 8.51193V12.0319C12.384 13.7438 11.0559 15.0399 9.28002 15.0399V15.0401ZM5.48798 11.4721L2.43189 9.71212C1.55182 9.20002 0.959897 8.11211 0.959897 7.05614C0.959897 5.82414 1.69591 4.72016 2.83184 4.25611V7.9041C2.83184 8.12815 2.92791 8.28814 3.11985 8.40012L7.11993 10.72L5.80794 11.4721C5.69599 11.536 5.59992 11.536 5.48798 11.4721ZM5.31208 14.0961C3.50406 14.0961 2.17603 12.7361 2.17603 11.0561C2.17603 10.928 2.19206 10.8 2.20797 10.672L5.35997 12.4961C5.55191 12.608 5.74401 12.608 5.93595 12.4961L9.95194 10.1762V11.6962C9.95194 11.8242 9.90392 11.9202 9.79195 11.9841L6.73589 13.7441C6.31986 13.9841 5.82384 14.0961 5.31191 14.0961H5.31208ZM9.28002 16C11.2161 16 12.832 14.624 13.2001 12.8C14.9921 12.3359 16.1441 10.6559 16.1441 8.94399C16.1441 7.82393 15.6641 6.73602 14.8001 5.95199C14.8801 5.61596 14.9281 5.27994 14.9281 4.94407C14.9281 2.65611 13.0721 0.943991 10.928 0.943991C10.4961 0.943991 10.0801 1.00792 9.6641 1.152C8.94399 0.44797 7.95198 0 6.86404 0C4.92803 0 3.31212 1.37592 2.94398 3.19998C1.152 3.66402 0 5.34403 0 7.05598C0 8.17603 0.479948 9.26395 1.34398 10.048C1.26398 10.384 1.21596 10.72 1.21596 11.0559C1.21596 13.3439 3.072 15.056 5.21601 15.056C5.64794 15.056 6.06397 14.9921 6.47999 14.848C7.19993 15.552 8.19194 16 9.28002 16Z" fill="#171613"/>
</g>
</g>
<defs>
<filter id="filter0_d_114_198" x="-2" y="-1" width="20.144" height="20" filterUnits="userSpaceOnUse" color-interpolation-filters="sRGB">
<feFlood flood-opacity="0" result="BackgroundImageFix"/>
<feColorMatrix in="SourceAlpha" type="matrix" values="0 0 0 0 0 0 0 0 0 0 0 0 0 0 0 0 0 0 127 0" result="hardAlpha"/>
<feOffset dy="1"/>
<feGaussianBlur stdDeviation="1"/>
<feColorMatrix type="matrix" values="0 0 0 0 0.941176 0 0 0 0 0.898039 0 0 0 0 0.0666667 0 0 0 0.25 0"/>
<feBlend mode="normal" in2="BackgroundImageFix" result="effect1_dropShadow_114_198"/>
<feBlend mode="normal" in="SourceGraphic" in2="effect1_dropShadow_114_198" result="shape"/>
</filter>
</defs>
</svg>
